<svg version="1.1" id="Layer_1" xmlns="http://www.w3.org/2000/svg" xmlns:xlink="http://www.w3.org/1999/xlink" x="0px" y="0px"
	 width="100%" viewBox="0 0 862 840" enable-background="new 0 0 862 840" xml:space="preserve">
<path fill="#181B1F" opacity="1.000000" stroke="none" 
	d="
M561.000000,841.000000 
	C374.000061,841.000000 187.500107,841.000000 1.000125,841.000000 
	C1.000083,561.000122 1.000083,281.000275 1.000042,1.000313 
	C288.333099,1.000209 575.666199,1.000209 862.999512,1.000104 
	C862.999634,280.999695 862.999634,560.999390 862.999817,840.999512 
	C762.500000,841.000000 662.000000,841.000000 561.000000,841.000000 
M96.499779,740.638611 
	C133.495712,740.643494 170.491730,740.690735 207.487534,740.624939 
	C217.286987,740.607483 215.349518,741.871521 218.988358,733.082275 
	C234.023697,696.766235 249.021088,660.433899 263.795959,624.011597 
	C265.465485,619.895996 267.570007,618.639160 271.860687,618.644043 
	C375.682800,618.761353 479.505127,618.769409 583.327209,618.663391 
	C587.334473,618.659302 589.148193,619.926697 590.568787,623.647217 
	C604.828674,660.992859 619.336426,698.243896 633.595886,735.589722 
	C634.999695,739.266174 636.723022,740.719604 640.767090,740.707153 
	C687.761475,740.562378 734.756409,740.604736 781.751160,740.576416 
	C783.503052,740.575317 785.254883,740.358521 787.421021,740.214722 
	C786.822388,738.345459 786.497192,737.089600 786.025085,735.891602 
	C772.532104,701.647034 759.010925,667.413452 745.521606,633.167358 
	C718.299011,564.056030 691.113403,494.930115 663.809326,425.851013 
	C662.607666,422.810760 663.171753,421.068085 665.495178,418.987152 
	C685.974060,400.645355 706.371338,382.212128 726.751831,363.760742 
	C728.738586,361.962036 730.450073,359.859192 732.289307,357.897522 
	C731.990845,357.355713 731.692444,356.813873 731.394043,356.272064 
	C658.392639,377.770782 585.391235,399.269531 512.030762,420.874023 
	C522.577698,447.685272 532.830566,473.749115 543.236877,500.202911 
	C482.514069,500.202911 422.867676,500.202911 361.647064,500.202911 
	C382.263000,480.104401 401.790192,461.067291 421.317383,442.030182 
	C420.877808,441.279419 420.438232,440.528656 419.998657,439.777893 
	C304.474487,473.695251 188.950333,507.612579 73.426155,541.529968 
	C73.519615,542.320496 73.613068,543.111084 73.706528,543.901611 
	C97.759636,543.901611 121.812744,543.901611 147.042847,543.901611 
	C119.015083,610.132629 91.623268,674.860779 63.786961,740.639343 
	C75.246201,740.639343 85.372955,740.639343 96.499779,740.638611 
M256.924957,270.380707 
	C231.541656,321.757568 206.237213,373.173828 180.630463,424.439056 
	C178.504852,428.694580 174.786865,432.480255 171.042038,435.548370 
	C147.454651,454.873383 123.647461,473.930054 99.926483,493.092194 
	C98.773033,494.024017 97.747025,495.113647 96.661659,496.129791 
	C115.256004,491.552582 133.298264,486.269287 151.331360,480.954956 
	C209.484543,463.817261 267.562988,446.418243 325.854828,429.766083 
	C335.723541,426.946899 342.757812,423.111420 344.967773,412.674744 
	C345.304901,411.082672 346.306030,409.635590 346.966248,408.106842 
	C372.456177,349.080078 397.940186,290.050812 423.440521,231.028580 
	C424.067810,229.576736 424.870758,228.200806 425.923798,226.139557 
	C426.894989,227.746552 427.587708,228.630844 428.010101,229.629471 
	C444.362640,268.292450 460.651672,306.982391 477.092224,345.607880 
	C478.469025,348.842499 477.683624,350.731140 475.360565,352.967865 
	C456.873596,370.767670 438.477173,388.661499 420.071991,406.546051 
	C419.220795,407.373199 418.551392,408.387360 417.797302,409.314392 
	C515.444397,381.564423 612.689636,353.416534 709.548401,323.756561 
	C706.786560,322.509796 704.212036,321.780731 701.634766,321.770721 
	C678.468872,321.680786 655.269409,320.987152 632.150696,322.034546 
	C621.132202,322.533752 616.084900,318.992188 611.354736,309.105743 
	C579.722229,242.991470 547.282410,177.263580 515.190796,111.368317 
	C513.785583,108.482834 512.290466,107.140778 508.851288,107.148743 
	C453.685699,107.276421 398.519623,107.302376 343.354095,107.171936 
	C339.025574,107.161705 336.948578,108.692299 335.074432,112.496086 
	C309.230927,164.949249 283.213806,217.316879 256.924957,270.380707 
z"/>
<path fill="#FC6C03" opacity="1.000000" stroke="none" 
	d="
M95.999748,740.638977 
	C85.372955,740.639343 75.246201,740.639343 63.786961,740.639343 
	C91.623268,674.860779 119.015083,610.132629 147.042847,543.901611 
	C121.812744,543.901611 97.759636,543.901611 73.706528,543.901611 
	C73.613068,543.111084 73.519615,542.320496 73.426155,541.529968 
	C188.950333,507.612579 304.474487,473.695251 419.998657,439.777893 
	C420.438232,440.528656 420.877808,441.279419 421.317383,442.030182 
	C401.790192,461.067291 382.263000,480.104401 361.647064,500.202911 
	C422.867676,500.202911 482.514069,500.202911 543.236877,500.202911 
	C532.830566,473.749115 522.577698,447.685272 512.030762,420.874023 
	C585.391235,399.269531 658.392639,377.770782 731.394043,356.272064 
	C731.692444,356.813873 731.990845,357.355713 732.289307,357.897522 
	C730.450073,359.859192 728.738586,361.962036 726.751831,363.760742 
	C706.371338,382.212128 685.974060,400.645355 665.495178,418.987152 
	C663.171753,421.068085 662.607666,422.810760 663.809326,425.851013 
	C691.113403,494.930115 718.299011,564.056030 745.521606,633.167358 
	C759.010925,667.413452 772.532104,701.647034 786.025085,735.891602 
	C786.497192,737.089600 786.822388,738.345459 787.421021,740.214722 
	C785.254883,740.358521 783.503052,740.575317 781.751160,740.576416 
	C734.756409,740.604736 687.761475,740.562378 640.767090,740.707153 
	C636.723022,740.719604 634.999695,739.266174 633.595886,735.589722 
	C619.336426,698.243896 604.828674,660.992859 590.568787,623.647217 
	C589.148193,619.926697 587.334473,618.659302 583.327209,618.663391 
	C479.505127,618.769409 375.682800,618.761353 271.860687,618.644043 
	C267.570007,618.639160 265.465485,619.895996 263.795959,624.011597 
	C249.021088,660.433899 234.023697,696.766235 218.988358,733.082275 
	C215.349518,741.871521 217.286987,740.607483 207.487534,740.624939 
	C170.491730,740.690735 133.495712,740.643494 95.999748,740.638977 
z"/>
<path fill="#FB6C03" opacity="1.000000" stroke="none" 
	d="
M257.082092,270.043091 
	C283.213806,217.316879 309.230927,164.949249 335.074432,112.496086 
	C336.948578,108.692299 339.025574,107.161705 343.354095,107.171936 
	C398.519623,107.302376 453.685699,107.276421 508.851288,107.148743 
	C512.290466,107.140778 513.785583,108.482834 515.190796,111.368317 
	C547.282410,177.263580 579.722229,242.991470 611.354736,309.105743 
	C616.084900,318.992188 621.132202,322.533752 632.150696,322.034546 
	C655.269409,320.987152 678.468872,321.680786 701.634766,321.770721 
	C704.212036,321.780731 706.786560,322.509796 709.548401,323.756561 
	C612.689636,353.416534 515.444397,381.564423 417.797302,409.314392 
	C418.551392,408.387360 419.220795,407.373199 420.071991,406.546051 
	C438.477173,388.661499 456.873596,370.767670 475.360565,352.967865 
	C477.683624,350.731140 478.469025,348.842499 477.092224,345.607880 
	C460.651672,306.982391 444.362640,268.292450 428.010101,229.629471 
	C427.587708,228.630844 426.894989,227.746552 425.923798,226.139557 
	C424.870758,228.200806 424.067810,229.576736 423.440521,231.028580 
	C397.940186,290.050812 372.456177,349.080078 346.966248,408.106842 
	C346.306030,409.635590 345.304901,411.082672 344.967773,412.674744 
	C342.757812,423.111420 335.723541,426.946899 325.854828,429.766083 
	C267.562988,446.418243 209.484543,463.817261 151.331360,480.954956 
	C133.298264,486.269287 115.256004,491.552582 96.661659,496.129791 
	C97.747025,495.113647 98.773033,494.024017 99.926483,493.092194 
	C123.647461,473.930054 147.454651,454.873383 171.042038,435.548370 
	C174.786865,432.480255 178.504852,428.694580 180.630463,424.439056 
	C206.237213,373.173828 231.541656,321.757568 257.082092,270.043091 
z"/>
</svg>